<svg xmlns="http://www.w3.org/2000/svg" style="display: none;">
    <symbol id="new-chat" viewBox="0 0 24 24" fill="none" xmlns="http://www.w3.org/2000/svg" stroke="currentColor" stroke-width="2" stroke-linecap="round" stroke-linejoin="round">
        <path d="M21 15a2 2 0 0 1-2 2H7l-4 4V5a2 2 0 0 1 2-2h14a2 2 0 0 1 2 2z"></path>
    </symbol>
    <symbol id="search-chat" viewBox="0 0 24 24" fill="none" stroke="currentColor" stroke-width="2" stroke-linecap="round" stroke-linejoin="round">
      <circle cx="11" cy="11" r="8"></circle>
      <line x1="21" y1="21" x2="16.65" y2="16.65"></line>
    </symbol>
    <symbol id="profile-icon" viewBox="0 0 24 24" fill="none" xmlns="http://www.w3.org/2000/svg" stroke="currentColor" stroke-width="1.5" stroke-linecap="round" stroke-linejoin="round">
        <path d="M20 21v-2a4 4 0 0 0-4-4H8a4 4 0 0 0-4 4v2"></path>
        <circle cx="12" cy="7" r="4"></circle>
    </symbol>
    <symbol id="attach-btn" viewBox="0 0 24 24" fill="none" xmlns="http://www.w3.org/2000/svg" stroke="#8A8A8A" stroke-width="2" stroke-linecap="round" stroke-linejoin="round">
        <line x1="12" y1="5" x2="12" y2="19"></line>
        <line x1="5" y1="12" x2="19" y2="12"></line>
    </symbol>
    <symbol id="settings-btn" viewBox="0 0 24 24" fill="none" xmlns="http://www.w3.org/2000/svg" stroke="#8A8A8A" stroke-width="2" stroke-linecap="round" stroke-linejoin="round">
        <circle cx="12" cy="12" r="3"></circle>
        <path d="M19.4 15a1.65 1.65 0 0 0 .33 1.82l.06.06a2 2 0 0 1 0 2.83 2 2 0 0 1-2.83 0l-.06-.06a1.65 1.65 0 0 0-1.82-.33 1.65 1.65 0 0 0-1 1.51V21a2 2 0 0 1-2 2 2 2 0 0 1-2-2v-.09A1.65 1.65 0 0 0 9 19.4a1.65 1.65 0 0 0-1.82.33l-.06.06a2 2 0 0 1-2.83 0 2 2 0 0 1 0-2.83l.06-.06a1.65 1.65 0 0 0 .33-1.82 1.65 1.65 0 0 0-1.51-1H3a2 2 0 0 1-2-2 2 2 0 0 1 2-2h.09A1.65 1.65 0 0 0 4.6 9a1.65 1.65 0 0 0-.33-1.82l-.06-.06a2 2 0 0 1 0-2.83 2 2 0 0 1 2.83 0l.06.06a1.65 1.65 0 0 0 1.82.33H9a1.65 1.65 0 0 0 1-1.51V3a2 2 0 0 1 2-2 2 2 0 0 1 2 2v.09a1.65 1.65 0 0 0 1 1.51 1.65 1.65 0 0 0 1.82-.33l.06-.06a2 2 0 0 1 2.83 0 2 2 0 0 1 0 2.83l-.06.06a1.65 1.65 0 0 0-.33 1.82V9a1.65 1.65 0 0 0 1.51 1H21a2 2 0 0 1 2 2 2 2 0 0 1-2 2h-.09a1.65 1.65 0 0 0-1.51 1z"></path>
    </symbol>
    <symbol id="send-btn" viewBox="0 0 24 24" fill="none" xmlns="http://www.w3.org/2000/svg" stroke="white" stroke-width="2" stroke-linecap="round" stroke-linejoin="round">
       <path d="M22 2L11 13"></path>
       <path d="M22 2L15 22L11 13L2 9L22 2Z"></path>
    </symbol>
    <symbol id="trash" viewBox="0 0 24 24" fill="none" stroke="currentColor" stroke-width="2" stroke-linecap="round" stroke-linejoin="round">
        <polyline points="3,6 5,6 21,6"></polyline>
        <path d="M19,6v14a2,2 0 0,1 -2,2H7a2,2 0 0,1 -2,-2V6m3,0V4a2,2 0 0,1 2,-2h4a2,2 0 0,1 2,2v2"></path>
        <line x1="10" y1="11" x2="10" y2="17"></line>
        <line x1="14" y1="11" x2="14" y2="17"></line>
    </symbol>
    <symbol id="file" viewBox="0 0 24 24" fill="none" stroke="currentColor" stroke-width="2" stroke-linecap="round" stroke-linejoin="round">
        <path d="M14,2H6A2,2 0 0,0 4,4V20A2,2 0 0,0 6,22H18A2,2 0 0,0 20,20V8L14,2Z"></path>
        <polyline points="14,2 14,8 20,8"></polyline>
    </symbol>
    <symbol id="message-circle" viewBox="0 0 24 24" fill="none" stroke="currentColor" stroke-width="2" stroke-linecap="round" stroke-linejoin="round">
        <path d="M21 11.5a8.38 8.38 0 0 1-.9 3.8 8.5 8.5 0 0 1-7.6 4.7 8.38 8.38 0 0 1-3.8-.9L3 21l1.9-5.7a8.38 8.38 0 0 1-.9-3.8 8.5 8.5 0 0 1 4.7-7.6 8.38 8.38 0 0 1 3.8-.9h.5a8.48 8.48 0 0 1 8 8v.5z"></path>
    </symbol>
    <symbol id="loader" viewBox="0 0 24 24" fill="none" stroke="currentColor" stroke-width="2" stroke-linecap="round" stroke-linejoin="round">
        <line x1="12" y1="2" x2="12" y2="6"></line>
        <line x1="12" y1="18" x2="12" y2="22"></line>
        <line x1="4.93" y1="4.93" x2="7.76" y2="7.76"></line>
        <line x1="16.24" y1="16.24" x2="19.07" y2="19.07"></line>
        <line x1="2" y1="12" x2="6" y2="12"></line>
        <line x1="18" y1="12" x2="22" y2="12"></line>
        <line x1="4.93" y1="19.07" x2="7.76" y2="16.24"></line>
        <line x1="16.24" y1="7.76" x2="19.07" y2="4.93"></line>
    </symbol>
    <symbol id="plus" viewBox="0 0 24 24" fill="none" stroke="currentColor" stroke-width="2" stroke-linecap="round" stroke-linejoin="round">
        <line x1="12" y1="5" x2="12" y2="19"></line>
        <line x1="5" y1="12" x2="19" y2="12"></line>
    </symbol>
</svg> 